<svg width="32" height="32" viewBox="0 0 32 32" fill="none" xmlns="http://www.w3.org/2000/svg">
<path d="M23.0002 20C22.2517 20.0038 21.5135 20.1755 20.8403 20.5027C20.167 20.8298 19.5758 21.3039 19.1102 21.89L11.8002 17.32C12.0666 16.4602 12.0666 15.5398 11.8002 14.68L19.1102 10.11C19.8521 11.0287 20.8953 11.6552 22.0549 11.8784C23.2145 12.1016 24.4157 11.9072 25.4457 11.3296C26.4757 10.752 27.268 9.82849 27.6823 8.72265C28.0966 7.6168 28.1061 6.40001 27.7091 5.28783C27.3122 4.17565 26.5344 3.23986 25.5135 2.64623C24.4927 2.0526 23.2947 1.83945 22.1317 2.04453C20.9688 2.24962 19.9159 2.85971 19.1597 3.76672C18.4035 4.67373 17.9928 5.81912 18.0002 7C18.0049 7.44718 18.0722 7.89149 18.2002 8.32L10.8902 12.89C10.2448 12.0776 9.36272 11.486 8.36614 11.1974C7.36955 10.9087 6.30785 10.9373 5.3282 11.279C4.34855 11.6208 3.49947 12.2588 2.89867 13.1047C2.29787 13.9506 1.9751 14.9625 1.9751 16C1.9751 17.0375 2.29787 18.0494 2.89867 18.8953C3.49947 19.7412 4.34855 20.3792 5.3282 20.721C6.30785 21.0627 7.36955 21.0913 8.36614 20.8026C9.36272 20.5139 10.2448 19.9224 10.8902 19.11L18.2002 23.68C18.0722 24.1085 18.0049 24.5528 18.0002 25C18.0002 25.9889 18.2934 26.9556 18.8428 27.7778C19.3922 28.6001 20.1731 29.241 21.0868 29.6194C22.0004 29.9978 23.0057 30.0969 23.9756 29.9039C24.9455 29.711 25.8365 29.2348 26.5357 28.5355C27.235 27.8363 27.7112 26.9454 27.9041 25.9755C28.097 25.0055 27.998 24.0002 27.6196 23.0866C27.2411 22.1729 26.6003 21.3921 25.778 20.8426C24.9558 20.2932 23.9891 20 23.0002 20ZM23.0002 4C23.5935 4 24.1735 4.17595 24.6669 4.50559C25.1602 4.83523 25.5448 5.30377 25.7718 5.85195C25.9989 6.40013 26.0583 7.00333 25.9425 7.58527C25.8268 8.16721 25.5411 8.70176 25.1215 9.12132C24.7019 9.54088 24.1674 9.8266 23.5855 9.94235C23.0035 10.0581 22.4003 9.9987 21.8521 9.77164C21.304 9.54457 20.8354 9.16006 20.5058 8.66671C20.1761 8.17336 20.0002 7.59334 20.0002 7C20.0002 6.20435 20.3163 5.44129 20.8789 4.87868C21.4415 4.31607 22.2045 4 23.0002 4ZM7.00018 19C6.40684 19 5.82682 18.8241 5.33347 18.4944C4.84013 18.1648 4.45561 17.6962 4.22855 17.148C4.00148 16.5999 3.94207 15.9967 4.05783 15.4147C4.17358 14.8328 4.45931 14.2982 4.87886 13.8787C5.29842 13.4591 5.83297 13.1734 6.41491 13.0576C6.99686 12.9419 7.60006 13.0013 8.14823 13.2284C8.69641 13.4554 9.16495 13.8399 9.49459 14.3333C9.82424 14.8266 10.0002 15.4067 10.0002 16C10.0002 16.7956 9.68411 17.5587 9.1215 18.1213C8.5589 18.6839 7.79583 19 7.00018 19ZM23.0002 28C22.4068 28 21.8268 27.8241 21.3335 27.4944C20.8401 27.1648 20.4556 26.6962 20.2285 26.148C20.0015 25.5999 19.9421 24.9967 20.0578 24.4147C20.1736 23.8328 20.4593 23.2982 20.8789 22.8787C21.2984 22.4591 21.833 22.1734 22.4149 22.0576C22.9969 21.9419 23.6001 22.0013 24.1482 22.2284C24.6964 22.4554 25.1649 22.8399 25.4946 23.3333C25.8242 23.8266 26.0002 24.4067 26.0002 25C26.0002 25.7956 25.6841 26.5587 25.1215 27.1213C24.5589 27.6839 23.7958 28 23.0002 28Z" fill="#1E0094"/>
</svg>
