<svg width="24" height="28" viewBox="0 0 24 28" fill="none" xmlns="http://www.w3.org/2000/svg">
<path d="M12 28L5.824 24.707C4.06334 23.7703 2.59097 22.3718 1.56493 20.6617C0.53888 18.9516 -0.00211306 16.9943 6.20257e-06 15V2C0.000535679 1.46973 0.211419 0.961329 0.586377 0.586371C0.961335 0.211413 1.46973 0.000529476 2 0H22C22.5303 0.000529476 23.0387 0.211413 23.4136 0.586371C23.7886 0.961329 23.9995 1.46973 24 2V15C24.0021 16.9943 23.4611 18.9516 22.4351 20.6617C21.409 22.3718 19.9367 23.7703 18.176 24.707L12 28ZM2 2V15C1.99835 16.6318 2.44111 18.2332 3.28077 19.6324C4.12043 21.0316 5.32528 22.1758 6.766 22.942L12 25.733L17.234 22.943C18.6749 22.1767 19.8798 21.0324 20.7195 19.633C21.5592 18.2336 22.0018 16.632 22 15V2H2Z" fill="#1E0094"/>
</svg>
