<svg width="32" height="32" viewBox="0 0 32 32" fill="none" xmlns="http://www.w3.org/2000/svg">
<path d="M23.0537 26.1666C23.174 26.0237 23.2933 25.8799 23.4116 25.7353C23.6845 25.402 23.833 24.9795 23.8333 24.5467C23.8333 24.5463 23.8333 24.5458 23.8333 24.5453L23.0537 26.1666ZM23.0537 26.1666H23.4872C23.5474 26.0941 23.608 26.0207 23.6693 25.9463C23.9914 25.5509 24.1671 25.0564 24.1667 24.5464V24.546C24.1667 23.4399 23.3598 22.493 22.2616 22.3413L22.2615 22.3413C17.6246 21.6995 14.4031 21.6391 9.7523 22.3187L9.75223 22.3187C8.6405 22.481 7.83333 23.4448 7.83333 24.564C7.83333 25.0599 7.99525 25.5485 8.29863 25.942L7.90376 26.2465L8.29863 25.942C8.35724 26.018 8.41534 26.0931 8.47307 26.1673H8.89686C8.78451 26.0252 8.67315 25.8822 8.56278 25.7385L8.56171 25.7371C8.30431 25.3995 8.16546 24.9864 8.16667 24.5619L8.66667 24.5633H8.16667C8.16667 23.6039 8.8581 22.7854 9.80039 22.6479L23.0537 26.1666Z" fill="#3F3F3F" stroke="#3F3F3F"/>
<path d="M16 17.1666C16.5909 17.1666 17.1761 17.0503 17.7221 16.8241C18.268 16.598 18.7641 16.2665 19.182 15.8486C19.5998 15.4308 19.9313 14.9347 20.1575 14.3887C20.3836 13.8428 20.5 13.2576 20.5 12.6666C20.5 12.0757 20.3836 11.4905 20.1575 10.9446C19.9313 10.3986 19.5998 9.90253 19.182 9.48467C18.7641 9.0668 18.268 8.73533 17.7221 8.50919C17.1761 8.28304 16.5909 8.16665 16 8.16665C14.8065 8.16665 13.6619 8.64075 12.818 9.48467C11.9741 10.3286 11.5 11.4732 11.5 12.6666C11.5 13.8601 11.9741 15.0047 12.818 15.8486C13.6619 16.6925 14.8065 17.1666 16 17.1666ZM19.4177 16.0843C18.5113 16.9908 17.2819 17.5 16 17.5C14.7181 17.5 13.4887 16.9908 12.5823 16.0843C11.6759 15.1779 11.1667 13.9485 11.1667 12.6666C11.1667 11.3848 11.6759 10.1554 12.5823 9.24896C13.4887 8.34254 14.7181 7.83331 16 7.83331C17.2819 7.83331 18.5113 8.34254 19.4177 9.24896C20.3241 10.1554 20.8333 11.3848 20.8333 12.6666C20.8333 13.9485 20.3241 15.1779 19.4177 16.0843Z" fill="#3F3F3F" stroke="#3F3F3F"/>
<path d="M16 28.5C22.9035 28.5 28.5 22.9035 28.5 16C28.5 9.09651 22.9035 3.49999 16 3.49999C9.09652 3.49999 3.5 9.09651 3.5 16C3.5 22.9035 9.09652 28.5 16 28.5ZM28.8333 16C28.8333 23.0878 23.0879 28.8333 16 28.8333C8.91214 28.8333 3.16667 23.0878 3.16667 16C3.16667 8.91213 8.91214 3.16666 16 3.16666C23.0879 3.16666 28.8333 8.91213 28.8333 16Z" fill="#3F3F3F" stroke="#3F3F3F"/>
</svg>
