<svg width="32" height="32" viewBox="0 0 32 32" fill="none" xmlns="http://www.w3.org/2000/svg">
<path d="M16 2C8.26875 2 2 8.26875 2 16C2 23.7313 8.26875 30 16 30C23.7313 30 30 23.7313 30 16C30 8.26875 23.7313 2 16 2ZM16 27.625C9.58125 27.625 4.375 22.4188 4.375 16C4.375 9.58125 9.58125 4.375 16 4.375C22.4188 4.375 27.625 9.58125 27.625 16C27.625 22.4188 22.4188 27.625 16 27.625Z" fill="#3F3F3F"/>
<path d="M22.4813 15.5969L13.2281 8.87812C13.1539 8.82372 13.0661 8.79099 12.9743 8.78359C12.8826 8.77619 12.7906 8.7944 12.7087 8.8362C12.6267 8.878 12.5579 8.94174 12.5101 9.02032C12.4622 9.0989 12.4371 9.18923 12.4375 9.28124V22.7188C12.4375 23.1282 12.9 23.3594 13.2281 23.1219L22.4813 16.4031C22.5451 16.3571 22.5972 16.2965 22.6331 16.2265C22.6689 16.1564 22.6877 16.0788 22.6877 16C22.6877 15.9213 22.6689 15.8437 22.6331 15.7736C22.5972 15.7035 22.5451 15.6429 22.4813 15.5969ZM14.4313 19.7844V12.2156L19.6406 16L14.4313 19.7844Z" fill="#3F3F3F"/>
</svg>
