<svg width="24" height="23" viewBox="0 0 24 23" fill="none" xmlns="http://www.w3.org/2000/svg">
<path d="M22.1759 4.99957L23.7609 3.7336C22.2871 1.89127 20.2068 0.632434 17.891 0.181669C16.6005 -0.0677005 15.2735 -0.0602771 13.9859 0.203515C12.6983 0.467308 11.4754 0.982296 10.3869 1.71904C9.29848 2.45578 8.36592 3.39983 7.64255 4.49721C6.91919 5.59459 6.41922 6.82378 6.17121 8.11451C4.28554 8.45503 2.60154 9.50392 1.4644 11.0462C0.327267 12.5885 -0.176871 14.5073 0.0553293 16.4093C0.321013 18.2578 1.25077 19.9462 2.67079 21.159C4.09082 22.3718 5.90392 23.026 7.77117 22.9992H16.001V20.9992H7.69517C6.38547 21.0196 5.10961 20.5829 4.08718 19.7641C3.06474 18.9454 2.35966 17.7958 2.09329 16.5133C1.95992 15.7998 1.96897 15.0669 2.1199 14.3569C2.27084 13.6469 2.56069 12.9737 2.97277 12.3761C3.38486 11.7785 3.91104 11.2683 4.52105 10.8749C5.13106 10.4814 5.81285 10.2124 6.5272 10.0835L7.87617 9.83847L8.09017 8.7285C8.3906 7.06078 9.19997 5.52697 10.4071 4.33772C11.6143 3.14847 13.16 2.36211 14.832 2.08663C15.8358 1.93762 16.8588 1.98174 17.846 2.21663C19.5625 2.62791 21.0888 3.60895 22.1759 4.99957Z" fill="#1E0094"/>
</svg>
