<svg width="130" height="130" viewBox="0 0 130 130" fill="none" xmlns="http://www.w3.org/2000/svg">
<path d="M122.061 88.93C110.085 117.581 78.1827 133.632 50.5224 129.3C46.0205 128.594 33.6787 126.496 22.7555 116.597C1.71587 97.5379 -2.78136 59.8004 14.1876 33.2013C26.5387 13.8451 48.6725 2.87394 69.7075 3.4218C74.2372 3.53788 91.6048 4.26681 106.863 17.0533C109.102 18.9291 114.049 23.3955 118.505 30.4713C128.969 47.0975 129.864 70.2562 122.061 88.93Z" fill="url(#paint0_linear_16_242)"/>
<path d="M0.709789 83.5814C2.75441 74.8434 9.43998 67.9812 17.9523 65.8827C23.8033 64.4387 29.4179 65.2141 34.1655 67.5495C35.7372 68.3248 37.6103 67.4473 38.0461 65.7109C42.242 49.015 57.004 36.6788 74.5757 36.6788C95.4113 36.6788 112.301 54.0201 112.301 75.4145C112.301 75.981 112.292 76.7563 112.283 77.5038C112.357 79.1056 113.039 79.7835 114.054 79.9553C122.219 80.8281 128.631 87.7368 128.988 96.2611C129.396 106.048 121.639 114.155 112.102 114.155H23.8636C8.75845 114.155 -3.06881 99.7433 0.709789 83.5814Z" fill="url(#paint1_linear_16_242)"/>
<path opacity="0.21" d="M7.54373 86.8593C9.37044 79.0546 15.3374 72.9306 22.941 71.0548C28.1661 69.7688 33.178 70.4559 37.4155 72.5452C38.8204 73.237 40.4894 72.4523 40.8789 70.9063C44.625 55.9979 57.8061 44.985 73.4954 44.985C92.0963 44.985 107.178 60.469 107.178 79.5699C107.178 80.076 107.169 80.7678 107.16 81.4364C107.225 82.8664 107.832 83.4699 108.741 83.6232C116.029 84.4032 121.76 90.5736 122.075 98.1833C122.441 106.921 115.514 114.159 106.997 114.159H28.2171C14.73 114.155 4.16849 101.289 7.54373 86.8593Z" fill="#91B3FA"/>
<path d="M17.79 124.625C17.79 125.34 18.3742 125.925 19.0928 125.925H89.4722C90.1862 125.925 90.775 125.34 90.775 124.625L91.3591 84.1246C91.3591 83.4096 90.5153 82.0121 88.9714 82.1142L20.1916 80.3313C19.2922 80.3081 18.4252 80.6563 17.79 81.2878C17.1548 81.9239 16.8071 82.7921 16.8256 83.6882L17.79 124.625Z" fill="url(#paint2_linear_16_242)"/>
<path d="M19.0743 123.376C19.0743 124.053 19.6306 124.611 20.3075 124.611H87.7753C88.4522 124.611 89.0086 124.053 89.0086 123.376L89.5603 86.6085C89.4954 84.3939 87.5574 83.5999 86.3844 83.6463L20.4652 81.8774C19.8346 81.8588 19.2226 82.1049 18.7775 82.5506C18.3325 82.9963 18.0867 83.6092 18.1006 84.2406L19.0743 123.376Z" fill="#7D97F4"/>
<path d="M88.276 105.909C88.276 105.909 88.276 105.909 88.276 105.909C88.2714 105.909 88.276 105.909 88.276 105.909C88.174 105.909 88.0952 105.825 88.0952 105.723L88.1369 102.743C88.1369 102.645 88.2204 102.566 88.3177 102.566C88.4197 102.566 88.4986 102.65 88.4986 102.752L88.4568 105.733C88.4522 105.83 88.3734 105.909 88.276 105.909Z" fill="white"/>
<path d="M88.3826 98.6011C88.2806 98.6011 88.2018 98.5176 88.2018 98.4154L88.3687 86.9939C88.3641 86.316 88.1601 85.7728 87.7567 85.3875C87.0057 84.6678 85.8141 84.705 85.7631 84.705L64.691 84.1385C64.5937 84.1339 64.5148 84.0549 64.5148 83.9528C64.5195 83.8553 64.5937 83.7671 64.7003 83.7764L85.7585 84.3428C85.8883 84.3335 87.1587 84.3149 88.0071 85.1228C88.4846 85.5778 88.7257 86.2092 88.7304 86.9939L88.5635 98.4201C88.5635 98.5222 88.48 98.6011 88.3826 98.6011Z" fill="white"/>
<path d="M12.3423 129.291H94.79C94.9337 129.291 95.0543 129.175 95.0543 129.026V125.994C95.0543 125.85 94.9384 125.73 94.79 125.73H12.3423C12.1986 125.73 12.0781 125.846 12.0781 125.994V129.026C12.0781 129.17 12.1986 129.291 12.3423 129.291Z" fill="url(#paint3_linear_16_242)"/>
<path d="M48.3434 122.814H22.3707C21.411 122.814 20.6367 122.038 20.6367 121.077V87.1239C20.6367 86.1396 21.4527 85.3503 22.4356 85.3875L48.4129 86.381C49.3448 86.4182 50.082 87.1843 50.082 88.1175V121.077C50.0774 122.038 49.3031 122.814 48.3434 122.814Z" fill="#91B3FA"/>
<path opacity="0.51" d="M43.1785 100.997H25.9731C25.8387 100.997 25.7274 100.885 25.7274 100.751V98.954C25.7274 98.8193 25.8387 98.7079 25.9731 98.7079H43.1785C43.313 98.7079 43.4242 98.8193 43.4242 98.954V100.751C43.4242 100.885 43.313 100.997 43.1785 100.997Z" fill="white"/>
<path opacity="0.51" d="M43.211 104.655H26.0056C25.8711 104.655 25.7598 104.544 25.7598 104.409V102.613C25.7598 102.478 25.8711 102.367 26.0056 102.367H43.211C43.3454 102.367 43.4567 102.478 43.4567 102.613V104.409C43.4613 104.544 43.35 104.655 43.211 104.655Z" fill="white"/>
<path opacity="0.51" d="M43.3176 108.388H26.1122C25.9777 108.388 25.8665 108.277 25.8665 108.142V106.345C25.8665 106.211 25.9777 106.099 26.1122 106.099H43.3176C43.452 106.099 43.5633 106.211 43.5633 106.345V108.142C43.5633 108.277 43.452 108.388 43.3176 108.388Z" fill="white"/>
<path opacity="0.51" d="M43.35 112.047H26.1447C26.0102 112.047 25.8989 111.936 25.8989 111.801V110.004C25.8989 109.869 26.0102 109.758 26.1447 109.758H43.35C43.4845 109.758 43.5958 109.869 43.5958 110.004V111.801C43.6004 111.936 43.4891 112.047 43.35 112.047Z" fill="white"/>
<path opacity="0.51" d="M80.9135 100.997H55.9608C55.8264 100.997 55.7151 100.885 55.7151 100.751V98.954C55.7151 98.8193 55.8264 98.7079 55.9608 98.7079H80.9135C81.048 98.7079 81.1593 98.8193 81.1593 98.954V100.751C81.1593 100.885 81.048 100.997 80.9135 100.997Z" fill="white"/>
<path opacity="0.51" d="M80.9923 104.655H56.0397C55.9052 104.655 55.7939 104.544 55.7939 104.409V102.613C55.7939 102.478 55.9052 102.367 56.0397 102.367H80.9923C81.1268 102.367 81.2381 102.478 81.2381 102.613V104.409C81.2381 104.544 81.1268 104.655 80.9923 104.655Z" fill="white"/>
<path opacity="0.51" d="M70.6255 108.388H56.0397C55.9052 108.388 55.7939 108.277 55.7939 108.142V106.345C55.7939 106.211 55.9052 106.099 56.0397 106.099H70.6255C70.76 106.099 70.8713 106.211 70.8713 106.345V108.142C70.8713 108.277 70.76 108.388 70.6255 108.388Z" fill="white"/>
<g opacity="0.51">
<path opacity="0.51" d="M69.2207 90.1696H68.8313C68.6366 90.1696 68.4836 90.0118 68.4836 89.8214V88.4935C68.4836 88.02 68.0987 87.6346 67.6258 87.6346H65.2242C64.7513 87.6346 64.3665 88.02 64.3665 88.4935V89.8214C64.3665 90.0164 64.2089 90.1696 64.0188 90.1696H63.6293C63.4346 90.1696 63.2816 90.0118 63.2816 89.8214V88.4935C63.2816 87.4164 64.1532 86.5482 65.2242 86.5482H67.6258C68.7015 86.5482 69.5685 87.421 69.5685 88.4935V89.8214C69.5685 90.0164 69.4155 90.1696 69.2207 90.1696Z" fill="white"/>
<path opacity="0.51" d="M69.7029 90.4854H63.1471C62.7438 90.4854 62.4192 90.8104 62.4192 91.2143V96.2472C62.4192 96.6511 62.7438 96.9761 63.1471 96.9761H69.6983C70.1016 96.9761 70.4262 96.6511 70.4262 96.2472V91.2097C70.4308 90.8104 70.1016 90.4854 69.7029 90.4854ZM67.3616 95.3511C67.4033 95.5229 67.2735 95.6854 67.1019 95.6854H65.7528C65.5766 95.6854 65.4514 95.5229 65.4931 95.3511L65.5003 95.3212C65.6837 94.5569 65.173 93.7122 65.2196 92.9275C65.252 92.3193 65.7435 91.8179 66.3555 91.7807C67.0602 91.7389 67.649 92.2961 67.649 92.9925C67.649 93.7414 67.1708 94.532 67.3407 95.2613L67.3616 95.3511Z" fill="white"/>
</g>
<path d="M88.2945 31.3767C88.2667 31.3767 88.2435 31.372 88.2204 31.3581C88.1462 31.3163 88.1183 31.2188 88.1601 31.1445C88.2621 30.9635 88.3594 30.7824 88.4522 30.5967C88.4939 30.5177 88.5866 30.4899 88.6608 30.5317C88.7396 30.5734 88.7674 30.6663 88.7257 30.7406C88.6283 30.9263 88.531 31.112 88.429 31.2977C88.4058 31.3488 88.3502 31.3767 88.2945 31.3767Z" fill="#91B3FA"/>
<path d="M70.0367 42.1389C69.944 42.1389 69.8512 42.1389 69.7585 42.1389C69.6704 42.1389 69.6055 42.0646 69.6055 41.981C69.6055 41.8975 69.6751 41.8278 69.7632 41.8278C70.1665 41.8325 70.5745 41.8278 70.9779 41.8093C71.0567 41.8046 71.1355 41.8743 71.1401 41.9578C71.1448 42.046 71.0752 42.1157 70.9918 42.1203C70.6765 42.1343 70.3566 42.1389 70.0367 42.1389ZM67.7788 42.0182C67.7742 42.0182 67.7695 42.0182 67.7603 42.0182C67.3523 41.9718 66.9396 41.916 66.5409 41.851C66.4575 41.8371 66.3972 41.7582 66.4111 41.67C66.425 41.5864 66.5085 41.526 66.5919 41.54C66.9906 41.605 67.394 41.6607 67.7974 41.7071C67.8808 41.7164 67.9457 41.7953 67.9365 41.8789C67.9225 41.9578 67.8576 42.0182 67.7788 42.0182ZM72.9669 41.9346C72.888 41.9346 72.8231 41.8789 72.8139 41.8C72.8 41.7164 72.8602 41.6375 72.9483 41.6235C73.347 41.5678 73.7504 41.4982 74.1445 41.4193C74.2279 41.4007 74.3114 41.4564 74.3299 41.54C74.3485 41.6235 74.2928 41.7071 74.2094 41.7257C73.8152 41.8028 73.4166 41.8711 73.0222 41.9305C73.0039 41.9332 72.9854 41.9346 72.9669 41.9346ZM64.6215 41.4285C64.6076 41.4285 64.5937 41.4285 64.5798 41.4239C64.1857 41.3171 63.7869 41.201 63.3975 41.071C63.314 41.0432 63.2723 40.955 63.3001 40.8714C63.3279 40.7878 63.416 40.746 63.4995 40.7739C63.8843 40.8992 64.2738 41.02 64.6632 41.1221C64.7467 41.1453 64.7977 41.2289 64.7745 41.3125C64.7559 41.3821 64.691 41.4285 64.6215 41.4285ZM76.101 41.2428C76.0361 41.2428 75.9712 41.201 75.9527 41.1314C75.9295 41.0478 75.9758 40.9596 76.0547 40.9364C76.4395 40.8203 76.8289 40.6903 77.2045 40.551C77.2833 40.5232 77.376 40.5603 77.4038 40.6439C77.4316 40.7228 77.3945 40.8157 77.3111 40.8435C76.9395 40.978 76.5592 41.1082 76.1829 41.2257C76.1563 41.234 76.1289 41.2428 76.101 41.2428ZM61.594 40.3607C61.5708 40.3607 61.5522 40.356 61.5291 40.3467C61.1535 40.1796 60.778 40.0032 60.4163 39.8175C60.3375 39.7803 60.3097 39.6828 60.3468 39.6085C60.3885 39.5342 60.4812 39.5017 60.5554 39.5389C60.9124 39.7246 61.2833 39.901 61.6496 40.0635C61.7284 40.096 61.7655 40.1889 61.7284 40.2678C61.7099 40.3282 61.6542 40.3607 61.594 40.3607ZM79.0914 40.0728C79.0312 40.0728 78.9755 40.0403 78.9524 39.9846C78.9153 39.9057 78.9477 39.8128 79.0265 39.7757C79.3882 39.5992 79.7544 39.4135 80.1068 39.2139C80.181 39.1721 80.2783 39.1999 80.3201 39.2742C80.3618 39.3485 80.334 39.446 80.2598 39.4878C79.9028 39.6875 79.5319 39.8778 79.1656 40.0589C79.1378 40.0682 79.1146 40.0728 79.0914 40.0728ZM58.7658 38.8424C58.738 38.8424 58.7055 38.8332 58.6823 38.8192C58.3393 38.5964 57.9962 38.3642 57.667 38.1228C57.5975 38.0717 57.5835 37.9742 57.6345 37.9046C57.6855 37.8349 57.7829 37.821 57.8525 37.8721C58.177 38.1089 58.5154 38.341 58.8539 38.5592C58.9281 38.6057 58.9466 38.7032 58.9003 38.7774C58.8678 38.8192 58.8168 38.8424 58.7658 38.8424ZM81.8686 38.4571C81.8176 38.4571 81.7712 38.4339 81.7388 38.3874C81.6878 38.3178 81.7063 38.2203 81.7805 38.1692C82.1143 37.9417 82.4435 37.6956 82.7588 37.4496C82.8283 37.3985 82.9257 37.4078 82.9767 37.4774C83.0277 37.5471 83.0184 37.6446 82.9489 37.6957C82.6486 37.9276 82.3404 38.1556 82.0279 38.3723C81.9775 38.4072 81.9299 38.4571 81.8686 38.4571ZM56.2066 36.9064C56.1695 36.9064 56.1324 36.8924 56.1046 36.8692C55.7986 36.5999 55.4972 36.3121 55.2051 36.0242C55.1448 35.9639 55.1448 35.8663 55.2051 35.8013C55.2654 35.741 55.3627 35.741 55.4277 35.8013C55.7151 36.0846 56.0118 36.3678 56.3132 36.6324C56.3781 36.6881 56.3827 36.7903 56.3271 36.8553C56.2946 36.8878 56.2529 36.9064 56.2066 36.9064ZM84.3676 36.4374C84.3258 36.4374 84.2841 36.4189 84.2563 36.3864C84.196 36.3214 84.2007 36.2239 84.2609 36.1635C84.553 35.8849 84.8451 35.5971 85.1187 35.3046C85.1789 35.2442 85.2763 35.2396 85.3412 35.2999C85.4061 35.3603 85.4061 35.4578 85.3458 35.5228C85.063 35.8199 84.7709 36.1124 84.4742 36.3956C84.4418 36.4235 84.4047 36.4374 84.3676 36.4374ZM53.9718 34.5988C53.9255 34.5988 53.8838 34.5803 53.8513 34.5431C53.5917 34.2274 53.332 33.9024 53.0909 33.5728C53.0399 33.5031 53.0539 33.4056 53.1234 33.3545C53.1929 33.3035 53.2903 33.3174 53.3413 33.387C53.5824 33.712 53.8328 34.0324 54.0924 34.3435C54.148 34.4085 54.1388 34.5106 54.0738 34.5617C54.0414 34.5849 54.0089 34.5988 53.9718 34.5988ZM86.5235 34.0603C86.491 34.0603 86.4586 34.051 86.4261 34.0278C86.3566 33.9767 86.3473 33.8746 86.3983 33.8095C86.6486 33.4892 86.8897 33.1595 87.1169 32.8299C87.1679 32.7603 87.2653 32.7417 87.3348 32.7881C87.4044 32.8392 87.4229 32.9367 87.3765 33.0063C87.1447 33.3406 86.899 33.6795 86.6486 34.0046C86.6162 34.0371 86.5745 34.0603 86.5235 34.0603ZM52.1127 31.9756C52.0617 31.9756 52.006 31.9477 51.9782 31.9013C51.765 31.5485 51.5656 31.1863 51.3755 30.8242C51.3338 30.7499 51.3662 30.6524 51.4404 30.6152C51.5146 30.5735 51.612 30.606 51.649 30.6802C51.8345 31.0377 52.0339 31.3952 52.2425 31.7388C52.2739 31.7891 52.2713 31.8501 52.2433 31.8972C52.2162 31.9427 52.1656 31.9756 52.1127 31.9756ZM50.6801 29.1017C50.6198 29.1017 50.5595 29.0645 50.5363 29.0042C50.3833 28.6234 50.235 28.2334 50.1052 27.8481C50.0773 27.7645 50.1191 27.6763 50.2025 27.6484C50.2813 27.6206 50.3741 27.6624 50.4019 27.7459C50.5317 28.1266 50.6754 28.512 50.8238 28.8881C50.8562 28.967 50.8192 29.0599 50.7357 29.0924C50.7172 29.097 50.6986 29.1017 50.6801 29.1017Z" fill="#91B3FA"/>
<path d="M49.7018 26.028C49.6323 26.028 49.5673 25.9816 49.5488 25.9073C49.5024 25.703 49.4561 25.4988 49.4143 25.2945C49.3958 25.2109 49.4514 25.1273 49.5349 25.1088C49.6183 25.0902 49.7018 25.1459 49.7203 25.2295C49.7621 25.4338 49.8038 25.6334 49.8548 25.833C49.8705 25.9036 49.8365 25.9742 49.7754 26.0056C49.7525 26.0174 49.7275 26.028 49.7018 26.028Z" fill="#91B3FA"/>
<path d="M52.3491 10.089C52.3213 10.089 52.2935 10.0797 52.2657 10.0658C52.1915 10.0194 52.173 9.92186 52.2147 9.85222C52.326 9.67579 52.4419 9.49936 52.5578 9.32293C52.6041 9.25329 52.7015 9.23007 52.7757 9.28114C52.8452 9.32757 52.8684 9.42507 52.8174 9.49936C52.7015 9.67115 52.5902 9.84293 52.479 10.0194C52.4511 10.0658 52.4001 10.089 52.3491 10.089Z" fill="#91B3FA"/>
<path d="M90.0703 15.3262C90.0007 15.3262 89.9404 15.2798 89.9219 15.2148C89.8013 14.8062 89.6669 14.3976 89.5232 13.9983C89.4953 13.9194 89.5371 13.8265 89.6159 13.7987C89.6947 13.7708 89.7874 13.8126 89.8153 13.8915C89.9636 14.2955 90.0981 14.7133 90.2186 15.1265C90.2379 15.1962 90.2089 15.2691 90.1504 15.3049C90.1266 15.3194 90.0981 15.3262 90.0703 15.3262ZM88.8602 12.169C88.7999 12.169 88.7443 12.1365 88.7211 12.0808C88.5356 11.6955 88.3409 11.3147 88.1323 10.9479C88.0905 10.8737 88.1184 10.7762 88.1925 10.7344C88.2667 10.6926 88.3641 10.7204 88.4058 10.7947C88.6145 11.1708 88.8184 11.5562 89.0039 11.9462C89.041 12.0251 89.0085 12.118 88.9297 12.1551C88.9065 12.1644 88.8834 12.169 88.8602 12.169ZM87.1586 9.25329C87.1076 9.25329 87.0613 9.23007 87.0288 9.18829C86.7877 8.84007 86.5281 8.4965 86.2638 8.16221C86.2082 8.09256 86.2221 7.99506 86.287 7.94399C86.3566 7.88828 86.4539 7.90221 86.5049 7.96721C86.7738 8.30614 87.0335 8.65435 87.2792 9.00721C87.3302 9.07686 87.3116 9.17436 87.2421 9.22543C87.2189 9.244 87.1865 9.25329 87.1586 9.25329ZM53.9394 7.88828C53.9023 7.88828 53.8699 7.87435 53.842 7.85113C53.7771 7.79542 53.7679 7.69792 53.8235 7.63292C54.097 7.30327 54.3845 6.97363 54.6812 6.65791C54.7415 6.59291 54.8388 6.59291 54.9038 6.64862C54.9687 6.70898 54.9687 6.80648 54.913 6.87148C54.6209 7.18256 54.3381 7.50292 54.0692 7.82792C54.0321 7.86971 53.9858 7.88828 53.9394 7.88828ZM85.0074 6.64862C84.9657 6.64862 84.9239 6.6347 84.8961 6.60219C84.604 6.30041 84.2934 5.99862 83.9781 5.71076C83.9132 5.6504 83.9086 5.5529 83.9689 5.4879C84.0291 5.4229 84.1265 5.41826 84.1914 5.47861C84.5113 5.77112 84.8219 6.07291 85.1233 6.38398C85.1836 6.44434 85.1836 6.54648 85.1187 6.60684C85.0862 6.6347 85.0445 6.64862 85.0074 6.64862ZM56.2993 5.46933C56.2576 5.46933 56.2112 5.45076 56.1834 5.41361C56.1278 5.34861 56.1324 5.25111 56.1973 5.19076C56.5218 4.90754 56.8603 4.62897 57.1987 4.36432C57.2683 4.31325 57.3656 4.32253 57.4166 4.39218C57.4676 4.46182 57.4584 4.55932 57.3888 4.61039C57.055 4.8704 56.7212 5.14433 56.4013 5.4229C56.3688 5.4554 56.3317 5.46933 56.2993 5.46933ZM82.4713 4.42003C82.4389 4.42003 82.4064 4.41075 82.3786 4.38753C82.0401 4.13218 81.6878 3.89075 81.3308 3.6586C81.2566 3.61217 81.2381 3.51467 81.2844 3.44038C81.3308 3.3661 81.4282 3.34753 81.5023 3.39396C81.864 3.63074 82.221 3.87682 82.5641 4.13682C82.6336 4.18789 82.6475 4.28539 82.5965 4.35503C82.564 4.40146 82.5177 4.42003 82.4713 4.42003ZM59.0115 3.45896C58.9605 3.45896 58.9095 3.4311 58.8771 3.38467C58.8307 3.31038 58.8539 3.21288 58.9281 3.1711C59.2944 2.94359 59.6699 2.72538 60.0501 2.52109C60.1243 2.47931 60.2216 2.50716 60.2633 2.58609C60.3051 2.66038 60.2773 2.75788 60.1984 2.79966C59.8484 2.98575 59.5024 3.18797 59.1679 3.39504C59.1194 3.42508 59.0686 3.45896 59.0115 3.45896ZM79.6061 2.63252C79.5829 2.63252 79.5597 2.62788 79.5365 2.61395C79.161 2.41895 78.7715 2.23323 78.3821 2.06144C78.3033 2.02894 78.2662 1.93609 78.3033 1.85716C78.3357 1.77823 78.4285 1.74109 78.5073 1.77823C78.9014 1.95002 79.2954 2.14037 79.6756 2.33538C79.6981 2.34731 79.7165 2.3634 79.7302 2.38203C79.7982 2.47416 79.7206 2.63252 79.6061 2.63252ZM62.0112 1.90823C61.951 1.90823 61.8907 1.87109 61.8675 1.81073C61.8351 1.7318 61.8721 1.63894 61.951 1.60644C62.3497 1.4393 62.7531 1.28608 63.161 1.14679C63.2445 1.11894 63.3326 1.16072 63.3604 1.2443C63.3882 1.32787 63.3465 1.41608 63.263 1.44394C62.8777 1.577 62.4966 1.72278 62.1197 1.87721C62.0846 1.89163 62.0493 1.90823 62.0112 1.90823ZM76.4951 1.33251C76.4812 1.33251 76.4627 1.32787 76.4487 1.32322C76.0454 1.19322 75.6328 1.07251 75.2248 0.965722C75.1413 0.942507 75.0903 0.858935 75.1135 0.775363C75.1367 0.691791 75.2201 0.640719 75.3036 0.663934C75.7208 0.77072 76.1381 0.891436 76.5461 1.02608C76.6296 1.05394 76.6713 1.14215 76.6481 1.22108C76.6203 1.29072 76.56 1.33251 76.4951 1.33251ZM65.2196 0.868221C65.15 0.868221 65.0851 0.821792 65.0666 0.747506C65.048 0.663934 65.099 0.580362 65.1825 0.557147C65.6044 0.459646 66.0309 0.371432 66.4528 0.297145C66.5409 0.283217 66.6197 0.338931 66.6337 0.422503C66.6476 0.506075 66.5919 0.589648 66.5085 0.603576C66.1041 0.671068 65.6954 0.756002 65.2949 0.849926C65.2699 0.855795 65.2453 0.868221 65.2196 0.868221ZM73.2126 0.557147C73.1972 0.557147 73.1818 0.55595 73.1665 0.553595C72.7565 0.490283 72.3379 0.440396 71.9237 0.403932C71.8356 0.394646 71.7753 0.32036 71.7846 0.232145C71.7939 0.14393 71.8681 0.0835721 71.9561 0.0928579C72.3827 0.130001 72.8185 0.185716 73.245 0.250716C73.3285 0.264645 73.3888 0.343574 73.3749 0.427146C73.3517 0.501432 73.2868 0.557147 73.2126 0.557147ZM68.5577 0.362146C68.4743 0.362146 68.4094 0.297145 68.4001 0.218216C68.3955 0.130001 68.4604 0.0557147 68.5438 0.0510718C68.9704 0.0185716 69.4062 0.00464289 69.8374 0C69.9208 0 69.995 0.0696434 69.995 0.153215C69.995 0.24143 69.9254 0.311074 69.842 0.311074C69.4186 0.315683 68.9951 0.329442 68.5762 0.361436C68.571 0.361835 68.563 0.362146 68.5577 0.362146Z" fill="#91B3FA"/>
<path d="M90.6637 17.9866C90.5895 17.9866 90.52 17.9309 90.5107 17.8566C90.4783 17.6523 90.4458 17.448 90.4041 17.2437C90.3902 17.1601 90.4458 17.0766 90.5293 17.0626C90.6127 17.0487 90.6962 17.1044 90.7101 17.188C90.7472 17.3923 90.7842 17.6012 90.8167 17.8101C90.8306 17.8937 90.7703 17.9773 90.6869 17.9866C90.6822 17.9866 90.673 17.9866 90.6637 17.9866Z" fill="#91B3FA"/>
<path d="M86.0691 20.6005C86.0784 20.4937 86.0181 20.3916 85.9207 20.3498L85.1076 19.9966C83.8706 19.4592 83.0396 18.3248 82.6248 17.0415C82.2108 15.7604 82.2026 14.3298 82.8837 13.1684L83.3337 12.4012C83.3893 12.3083 83.3754 12.1922 83.3059 12.1087L80.9274 9.32294C80.8579 9.23937 80.7466 9.21151 80.6446 9.2533L79.8205 9.57828C78.5675 10.0724 77.1541 9.84083 75.9531 9.2309C74.7529 8.62135 73.7627 7.62732 73.4236 6.32457L73.1987 5.46005C73.1709 5.35791 73.0828 5.27898 72.9761 5.27434L69.3273 4.99112C69.2207 4.98183 69.1187 5.04219 69.077 5.13969L68.7215 5.96028C68.1867 7.19501 67.0557 8.02494 65.7756 8.43956C64.4952 8.85426 63.0646 8.86261 61.9046 8.18034L61.1396 7.73043C61.0469 7.67471 60.931 7.68864 60.8475 7.75829L58.0657 10.1401C57.9823 10.2097 57.9544 10.3212 57.9962 10.4233L58.322 11.2519C58.8148 12.5051 58.5839 13.9175 57.9752 15.1186C57.3654 16.3221 56.3697 17.3157 55.0643 17.6564L54.2083 17.8798C54.1063 17.9077 54.0321 17.9959 54.0228 18.1027L53.74 21.7566C53.7308 21.8634 53.791 21.9655 53.8884 22.0073L54.7016 22.3606C55.9386 22.8979 56.7696 24.0323 57.1843 25.3156C57.5983 26.5968 57.6065 28.0273 56.9254 29.1887L56.4755 29.956C56.4198 30.0488 56.4337 30.1649 56.5033 30.2485L58.8817 33.0342C58.9513 33.1178 59.0625 33.1456 59.1645 33.1038L59.9886 32.7789C61.2417 32.2847 62.655 32.5163 63.856 33.1262C65.0562 33.7358 66.0465 34.7298 66.3855 36.0326L66.6105 36.8971C66.6383 36.9992 66.7264 37.0782 66.833 37.0828L70.4818 37.366C70.5884 37.3753 70.6904 37.3149 70.7321 37.2174L71.0876 36.3969C71.6224 35.1621 72.7535 34.3322 74.0336 33.9176C75.3139 33.5029 76.7445 33.4945 77.9046 34.1768L78.6695 34.6267C78.7623 34.6824 78.8782 34.6685 78.9616 34.5989L81.7434 32.2171C81.8269 32.1474 81.8547 32.036 81.813 31.9338L81.4871 31.1052C80.9943 29.8521 81.2252 28.4397 81.8339 27.2385C82.4437 26.035 83.4394 25.0414 84.7449 24.7007L85.6008 24.4773C85.7028 24.4495 85.7816 24.3613 85.7863 24.2545L86.0691 20.6005Z" fill="#91B3FA"/>
<path opacity="0.7" d="M69.8976 24.6677C69.1836 24.6677 68.4882 24.4495 67.8947 24.027C66.3276 22.9173 65.9521 20.7352 67.0648 19.1659C67.6026 18.4044 68.4047 17.8984 69.3227 17.7405C70.2407 17.5826 71.1633 17.7916 71.9237 18.3301C72.684 18.8687 73.1894 19.6719 73.347 20.5912C73.5047 21.5105 73.296 22.4345 72.7582 23.1959C72.2204 23.9573 71.4183 24.4634 70.5003 24.6213C70.2963 24.6491 70.097 24.6677 69.8976 24.6677ZM69.9115 18.1584C69.74 18.1584 69.5684 18.1723 69.3969 18.2048C68.6041 18.3394 67.9086 18.7805 67.445 19.4352C66.4853 20.7955 66.8052 22.6805 68.1636 23.6463C68.822 24.1105 69.6194 24.2916 70.4122 24.157C71.205 24.0223 71.9005 23.5813 72.3641 22.9266C72.8278 22.2673 73.0086 21.4687 72.8741 20.6748C72.7397 19.8809 72.2992 19.1844 71.6455 18.7201C71.1355 18.3487 70.5328 18.1584 69.9115 18.1584Z" fill="white"/>
<path opacity="0.7" d="M69.842 30.2578C69.6055 30.2578 69.3644 30.2485 69.1234 30.2299C66.7078 30.0395 64.5148 28.9252 62.9385 27.082C61.5198 25.4245 60.7594 23.3584 60.7594 21.1948C60.7594 20.958 60.7687 20.7166 60.7872 20.4752C60.9773 18.0562 62.09 15.8601 63.9307 14.2816C65.7713 12.7076 68.1126 11.9415 70.5282 12.1319C72.9437 12.3223 75.1367 13.4366 76.713 15.2798C77.0837 15.7122 77.4115 16.1769 77.6932 16.6676C77.7576 16.7798 77.7149 16.9222 77.601 16.9837C77.487 17.0452 77.345 17.0024 77.2804 16.8902C77.0156 16.4305 76.7034 15.9907 76.356 15.5862C74.8631 13.8405 72.7814 12.7773 70.4911 12.6008C68.2007 12.4244 65.9799 13.1487 64.2367 14.6437C62.4934 16.1387 61.4317 18.2234 61.2555 20.517C61.237 20.7445 61.2277 20.972 61.2277 21.1995C61.2277 23.247 61.9463 25.2063 63.2909 26.7802C64.7838 28.526 66.8655 29.5892 69.1558 29.7656C71.4462 29.942 73.667 29.2177 75.4102 27.7227C76.5329 26.7616 77.3922 25.5242 77.8968 24.1416C77.9412 24.0199 78.0737 23.9534 78.1965 23.9945C78.3195 24.0355 78.3861 24.1686 78.3418 24.2904C77.81 25.7517 76.9081 27.0589 75.7162 28.0756C74.0657 29.4963 72.0025 30.2578 69.842 30.2578Z" fill="white"/>
<path d="M105.903 36.507C105.875 36.507 105.848 36.4978 105.824 36.4838C105.75 36.442 105.727 36.3445 105.769 36.2703C105.875 36.0938 105.973 35.9128 106.066 35.7317C106.107 35.6528 106.2 35.6249 106.274 35.6667C106.353 35.7085 106.381 35.8013 106.339 35.8756C106.242 36.0613 106.14 36.247 106.033 36.4281C106.005 36.4792 105.954 36.507 105.903 36.507Z" fill="#91B3FA"/>
<path d="M95.8285 41.7396C95.8239 41.7396 95.8193 41.7396 95.8146 41.7396C95.3927 41.7071 94.9662 41.6467 94.5489 41.5632C94.4655 41.5446 94.4098 41.4657 94.4237 41.3774C94.4423 41.2939 94.5211 41.2382 94.6092 41.2521C95.0126 41.331 95.4252 41.3867 95.8378 41.4192C95.9259 41.4239 95.9862 41.5028 95.9815 41.5864C95.9769 41.6792 95.9074 41.7396 95.8285 41.7396ZM97.8685 41.7071C97.7897 41.7071 97.7248 41.6467 97.7155 41.5678C97.7063 41.4842 97.7665 41.4053 97.8546 41.396C98.2673 41.3496 98.6753 41.2799 99.0786 41.1871C99.1621 41.1685 99.2455 41.2196 99.2641 41.3032C99.2826 41.3867 99.2316 41.4703 99.1482 41.4889C98.7355 41.5864 98.3136 41.656 97.8917 41.7071C97.8824 41.7071 97.8732 41.7071 97.8685 41.7071ZM92.6249 40.9828C92.6063 40.9828 92.5831 40.9782 92.5646 40.9735C92.1705 40.8157 91.7857 40.6299 91.4148 40.4256C91.3406 40.3839 91.3128 40.291 91.3545 40.2121C91.3962 40.1378 91.489 40.1099 91.5678 40.1517C91.9294 40.3514 92.3049 40.5324 92.6851 40.6856C92.7639 40.7181 92.8057 40.811 92.7732 40.8899C92.7454 40.9457 92.6851 40.9828 92.6249 40.9828ZM101.044 40.8435C100.984 40.8435 100.929 40.811 100.901 40.7507C100.864 40.6717 100.901 40.5789 100.98 40.5464C101.355 40.3792 101.726 40.1842 102.078 39.9753C102.152 39.9289 102.25 39.9567 102.292 40.031C102.338 40.1053 102.31 40.2028 102.236 40.2446C101.887 40.4522 101.526 40.6431 101.16 40.8091C101.123 40.8259 101.085 40.8435 101.044 40.8435ZM89.806 39.2881C89.7689 39.2881 89.7364 39.2742 89.704 39.251C89.3794 38.9817 89.0688 38.6846 88.7721 38.3781C88.7118 38.3131 88.7164 38.2156 88.7767 38.1553C88.8416 38.0949 88.939 38.0996 88.9992 38.1599C89.2821 38.4617 89.5881 38.7449 89.9033 39.0096C89.9682 39.0653 89.9775 39.1628 89.9219 39.2278C89.8941 39.2649 89.8477 39.2881 89.806 39.2881ZM103.808 39.0514C103.766 39.0514 103.724 39.0328 103.692 39.0003C103.636 38.9353 103.641 38.8378 103.706 38.7774L103.798 38.6939C104.072 38.4431 104.336 38.1738 104.582 37.8999C104.638 37.8349 104.74 37.8303 104.804 37.886C104.869 37.9417 104.874 38.0438 104.818 38.1088C104.563 38.3921 104.294 38.6706 104.012 38.926L103.919 39.0096C103.882 39.0374 103.845 39.0514 103.808 39.0514ZM87.6269 36.8135C87.5759 36.8135 87.5249 36.7903 87.4971 36.7392C87.2699 36.3817 87.0566 36.0056 86.8712 35.6249C86.8341 35.546 86.8665 35.4531 86.9454 35.416C87.0242 35.3788 87.1169 35.4113 87.154 35.4903C87.3348 35.8617 87.5388 36.2238 87.7614 36.572C87.8077 36.6463 87.7845 36.7392 87.715 36.7856C87.6872 36.8088 87.6594 36.8135 87.6269 36.8135Z" fill="#91B3FA"/>
<path d="M86.3009 33.791C86.2314 33.791 86.1665 33.7445 86.1479 33.6749C86.0923 33.4706 86.0459 33.2617 86.0042 33.0574C85.9857 32.9738 86.0413 32.8902 86.1248 32.8717C86.2082 32.8531 86.2917 32.9088 86.3102 32.9924C86.3519 33.192 86.3983 33.3963 86.4493 33.5913C86.4689 33.6619 86.4355 33.7326 86.3743 33.7668C86.3518 33.7793 86.3267 33.791 86.3009 33.791Z" fill="#91B3FA"/>
<path d="M87.5852 25.3084C87.5574 25.3084 87.5296 25.2991 87.5017 25.2852C87.4276 25.2388 87.409 25.1413 87.4507 25.0716C87.562 24.8952 87.6826 24.7141 87.8031 24.547C87.8541 24.4773 87.9515 24.4588 88.021 24.5098C88.0905 24.5609 88.1091 24.6584 88.0581 24.728C87.9376 24.8952 87.8263 25.067 87.715 25.2388C87.6872 25.2852 87.6408 25.3084 87.5852 25.3084Z" fill="#91B3FA"/>
<path d="M106.548 26.8313C106.487 26.8313 106.427 26.7941 106.404 26.7338C106.246 26.3623 106.066 25.9909 105.862 25.638C105.82 25.5638 105.843 25.4663 105.922 25.4245C105.996 25.3827 106.093 25.4059 106.135 25.4848C106.344 25.847 106.529 26.2277 106.691 26.6131C106.724 26.692 106.687 26.7848 106.608 26.8173C106.589 26.8266 106.566 26.8313 106.548 26.8313ZM104.846 24.0734C104.8 24.0734 104.758 24.0548 104.726 24.0177C104.647 23.9248 104.563 23.832 104.48 23.7391C104.29 23.5302 104.09 23.3259 103.882 23.1355C103.817 23.0752 103.817 22.9777 103.873 22.9127C103.933 22.8477 104.03 22.8477 104.095 22.9034C104.308 23.103 104.512 23.312 104.712 23.5255C104.8 23.6184 104.883 23.7159 104.962 23.8134C105.018 23.8784 105.008 23.9759 104.944 24.0316C104.916 24.0595 104.879 24.0734 104.846 24.0734ZM89.2496 23.2702C89.2079 23.2702 89.1662 23.2562 89.1384 23.2237C89.0781 23.1634 89.0827 23.0612 89.143 23.0009C89.2079 22.9405 89.2682 22.8802 89.3331 22.8198C89.5788 22.597 89.8338 22.3834 90.0981 22.1837C90.1676 22.1327 90.265 22.1466 90.316 22.2116C90.367 22.2812 90.3531 22.3787 90.2882 22.4298C90.0332 22.6248 89.7828 22.8337 89.5464 23.0473C89.4815 23.103 89.4212 23.1634 89.3609 23.2237C89.3285 23.2562 89.2914 23.2702 89.2496 23.2702ZM102.403 21.9469C102.375 21.9469 102.347 21.9377 102.319 21.9237C101.976 21.7055 101.619 21.5059 101.253 21.3341C101.174 21.2969 101.142 21.2041 101.179 21.1252C101.216 21.0462 101.309 21.0137 101.388 21.0509C101.763 21.2319 102.134 21.4362 102.486 21.6591C102.56 21.7055 102.579 21.803 102.533 21.8727C102.505 21.9191 102.454 21.9469 102.403 21.9469ZM91.9016 21.4037C91.846 21.4037 91.7903 21.3712 91.7625 21.3155C91.7254 21.2366 91.7579 21.1437 91.8321 21.1066C92.203 20.9209 92.5924 20.7537 92.9865 20.6144C93.07 20.5866 93.1581 20.6284 93.1859 20.7073C93.2137 20.7862 93.172 20.8791 93.0931 20.9069C92.713 21.0462 92.3328 21.2041 91.9712 21.3852C91.948 21.3991 91.9248 21.4037 91.9016 21.4037ZM99.4356 20.6469C99.4217 20.6469 99.4078 20.6469 99.3939 20.6423C99.0044 20.5401 98.6011 20.4566 98.1977 20.3962C98.1143 20.3823 98.054 20.3034 98.0679 20.2198C98.0818 20.1362 98.1606 20.0712 98.2441 20.0898C98.6567 20.1501 99.0694 20.2337 99.4727 20.3405C99.5562 20.3637 99.6072 20.4473 99.584 20.5309C99.5654 20.6005 99.5052 20.6469 99.4356 20.6469ZM94.9848 20.4194C94.9106 20.4194 94.841 20.3637 94.8318 20.2894C94.8179 20.2059 94.8781 20.1223 94.9616 20.113C95.3742 20.048 95.7915 20.0062 96.2088 19.9876C96.2968 19.9876 96.3664 20.0526 96.371 20.1362C96.3757 20.2244 96.3061 20.2941 96.2227 20.2987C95.8225 20.3169 95.4223 20.353 95.0308 20.4157C95.0156 20.4182 95.0002 20.4194 94.9848 20.4194Z" fill="#91B3FA"/>
<path d="M107.271 29.3663C107.197 29.3663 107.127 29.3106 107.118 29.2363C107.086 29.0366 107.048 28.8323 107.007 28.6327C106.988 28.5491 107.044 28.4656 107.127 28.447C107.211 28.4284 107.294 28.4841 107.313 28.5677C107.359 28.772 107.396 28.9809 107.429 29.1898C107.443 29.2734 107.382 29.357 107.299 29.3663C107.285 29.3663 107.276 29.3663 107.271 29.3663Z" fill="#91B3FA"/>
<path d="M104.906 30.6338C104.911 30.5781 104.879 30.527 104.828 30.5038L104.411 30.3219C103.776 30.0449 103.35 29.4633 103.136 28.8041C102.922 28.1447 102.917 27.4066 103.268 26.8088L103.497 26.418C103.525 26.3716 103.52 26.3113 103.483 26.2695L102.259 24.8395C102.222 24.7977 102.166 24.7837 102.115 24.8023L101.694 24.969C101.05 25.2236 100.323 25.1049 99.7057 24.7922C99.0901 24.4804 98.5841 23.9703 98.4107 23.3024L98.2951 22.8569C98.2812 22.8059 98.2348 22.7641 98.1792 22.7594L96.3061 22.6155C96.2505 22.6109 96.1995 22.6434 96.1763 22.6944L95.9933 23.1152C95.7176 23.7493 95.1377 24.1745 94.4801 24.3881C93.8211 24.6021 93.0831 24.6076 92.4859 24.2562L92.0963 24.027C92.05 23.9991 91.9897 24.0037 91.948 24.0409L90.52 25.2666C90.4783 25.3038 90.4643 25.3595 90.4829 25.4105L90.65 25.8344C90.9039 26.4781 90.7856 27.2047 90.4735 27.8222C90.1615 28.4395 89.6506 28.9473 88.9813 29.1215L88.5403 29.2363C88.4893 29.2502 88.4475 29.2966 88.4429 29.3524L88.2992 31.2281C88.2946 31.2838 88.327 31.3349 88.378 31.3581L88.795 31.5399C89.4302 31.8169 89.856 32.3986 90.0696 33.0578C90.2833 33.7172 90.2887 34.4553 89.9379 35.0531L89.7086 35.4438C89.6808 35.4903 89.6854 35.5506 89.7225 35.5924L90.9465 37.0224C90.9836 37.0642 91.0393 37.0781 91.0903 37.0596L91.5118 36.8929C92.1554 36.6383 92.8825 36.757 93.5 37.0697C94.1156 37.3815 94.6216 37.8916 94.795 38.5595L94.9106 39.0049C94.9245 39.056 94.9709 39.0978 95.0265 39.1024L96.8996 39.2464C96.9552 39.251 97.0062 39.2185 97.0294 39.1674L97.2124 38.7466C97.4881 38.1126 98.068 37.6873 98.7256 37.4738C99.3845 37.2598 100.123 37.2543 100.72 37.6057L101.109 37.8349C101.156 37.8628 101.216 37.8581 101.258 37.821L102.686 36.5953C102.727 36.5581 102.741 36.5024 102.723 36.4513L102.556 36.0275C102.302 35.3838 102.42 34.6572 102.732 34.0396C103.044 33.4224 103.555 32.9146 104.224 32.7404L104.665 32.6256C104.716 32.6117 104.758 32.5652 104.763 32.5095L104.906 30.6338Z" fill="#91B3FA"/>
<path opacity="0.7" d="M96.6028 32.8345C96.2134 32.8345 95.8332 32.7138 95.5087 32.4817C94.6509 31.8735 94.4469 30.6849 95.0543 29.8259C95.3464 29.4081 95.7868 29.1342 96.2876 29.0506C96.7883 28.9624 97.2936 29.0784 97.7063 29.3756C98.1235 29.6681 98.3971 30.1092 98.4805 30.6106C98.5686 31.112 98.4527 31.6181 98.156 32.0313C97.8639 32.4492 97.4235 32.7231 96.9227 32.8067C96.8207 32.8253 96.7095 32.8345 96.6028 32.8345ZM96.6075 29.4917C96.1577 29.4917 95.7127 29.7006 95.4345 30.0999C94.9755 30.7452 95.1331 31.646 95.7776 32.101C96.0882 32.3238 96.473 32.4074 96.8486 32.3424C97.2287 32.2774 97.5579 32.0685 97.7758 31.7574C97.9984 31.4463 98.0818 31.061 98.0169 30.6849C97.952 30.3042 97.7434 29.9745 97.4327 29.7563C97.187 29.5799 96.8949 29.4917 96.6075 29.4917Z" fill="white"/>
<path opacity="0.7" d="M96.575 35.7085C96.4498 35.7085 96.3247 35.7038 96.1948 35.6946C94.9245 35.5971 93.77 35.0074 92.9401 34.037C92.1705 33.1363 91.795 32.036 91.795 30.9356C91.795 29.5891 92.3606 28.2474 93.464 27.3048C95.4623 25.5916 98.4805 25.8284 100.191 27.8295C100.205 27.8434 100.219 27.862 100.233 27.8759C100.418 28.0976 100.584 28.333 100.722 28.5822C100.723 28.5833 100.725 28.5897 100.725 28.5909C100.725 28.5934 100.726 28.596 100.727 28.5977C100.728 28.5995 100.73 28.6009 100.731 28.6026C100.735 28.6076 100.738 28.6148 100.738 28.6188C100.738 28.6205 100.739 28.6223 100.74 28.6238C100.742 28.6269 100.744 28.6292 100.745 28.6323C100.754 28.648 100.749 28.6673 100.733 28.6758L100.559 28.7699C100.443 28.8325 100.299 28.7885 100.23 28.6762C100.112 28.4828 99.9772 28.2984 99.8297 28.1266C98.7402 26.8498 97.0572 26.3716 95.5272 26.7477C94.8967 26.9009 94.2939 27.2027 93.7654 27.6531C92.7732 28.5027 92.2632 29.7145 92.2632 30.9309C92.2632 31.9199 92.6017 32.9181 93.2925 33.7306C94.8364 35.5367 97.5533 35.7503 99.3568 34.2042C99.8905 33.7491 100.3 33.17 100.556 32.5211C100.604 32.4006 100.736 32.3339 100.859 32.3749C100.982 32.4159 101.049 32.5491 101.002 32.6697C100.717 33.3974 100.257 34.0463 99.6582 34.557C98.7958 35.3045 97.7109 35.7085 96.575 35.7085Z" fill="white"/>
<path d="M66.1793 52.4786C66.5641 52.1165 67.0834 51.9401 67.6119 51.9865C73.2311 52.4926 83.7139 49.7811 90.5617 42.7611C91.0392 42.2736 91.9062 42.5475 92.4487 42.9561C100.066 48.6575 112.696 49.8368 117.081 50.0783C117.99 50.1293 118.723 50.8304 118.815 51.7358C122.803 90.295 97.7295 104.27 92.5321 106.735C91.9619 107.005 91.2942 106.968 90.7611 106.633C64.844 90.4668 65.9521 69.4438 65.5951 53.8669C65.5812 53.3469 65.7945 52.8361 66.1793 52.4786Z" fill="url(#paint4_linear_16_242)"/>
<path opacity="0.61" d="M91.8321 103.94C91.7161 103.94 91.6002 103.908 91.4982 103.843C81.5626 97.4822 75.0857 89.8771 71.7012 80.596C68.6783 72.3084 68.5299 63.863 68.4001 56.4158L68.3815 55.4222C68.3769 55.2551 68.4418 55.1019 68.5577 54.9812C68.6736 54.8604 68.8313 54.7954 68.9982 54.7954C75.1506 54.7954 84.3861 52.0747 91.1598 45.9972C91.3684 45.8114 91.6744 45.7882 91.9109 45.9414C99.3522 50.8861 109.969 52.3254 115.635 52.7433C115.936 52.7665 116.173 52.9986 116.201 53.3051C117.517 68.3527 114.392 81.0742 106.914 91.1214C101.327 98.6244 94.7019 102.534 92.1149 103.866C92.0221 103.917 91.9294 103.94 91.8321 103.94ZM91.9943 103.648L92.05 103.759L91.9943 103.648C94.5675 102.325 101.151 98.4386 106.71 90.9775C114.151 80.9814 117.262 68.3155 115.95 53.3329C115.936 53.1565 115.793 53.0172 115.616 53.0033C109.928 52.5854 99.2594 51.1368 91.7718 46.1597C91.6327 46.0668 91.4519 46.0807 91.3313 46.1922C84.5067 52.3161 75.2016 55.0554 69.0075 55.0554C68.9008 55.0554 68.8081 55.0926 68.7432 55.1669C68.6736 55.2365 68.6365 55.3294 68.6412 55.4269L68.6597 56.4204C68.7895 63.8491 68.9379 72.2666 71.9469 80.5171C75.3128 89.7425 81.7573 97.3058 91.642 103.639C91.744 103.699 91.8831 103.708 91.9943 103.648Z" fill="white"/>
<path opacity="0.61" d="M100.891 67.0341H99.7184C99.1343 67.0341 98.666 66.5605 98.666 65.9802V61.9687C98.666 60.5341 97.5023 59.3687 96.0697 59.3687H88.8092C87.3766 59.3687 86.2128 60.5341 86.2128 61.9687V65.9802C86.2128 66.5652 85.7399 67.0341 85.1604 67.0341H83.9874C83.4032 67.0341 82.935 66.5605 82.935 65.9802V61.9687C82.935 58.7187 85.5638 56.0862 88.8092 56.0862H96.0697C99.3151 56.0862 101.944 58.7187 101.944 61.9687V65.9802C101.944 66.5605 101.471 67.0341 100.891 67.0341Z" fill="white"/>
<path opacity="0.61" d="M102.343 67.9812H82.5316C81.3169 67.9812 80.334 68.9655 80.334 70.182V85.406C80.334 86.6225 81.3169 87.6068 82.5316 87.6068H102.343C103.557 87.6068 104.54 86.6225 104.54 85.406V70.182C104.54 68.9655 103.557 67.9812 102.343 67.9812ZM95.2722 82.6946C95.3974 83.2053 95.0079 83.7021 94.4794 83.7021H90.3948C89.8663 83.7021 89.4814 83.2099 89.602 82.6946L89.6234 82.6053C90.1789 80.294 88.6485 77.7373 88.7721 75.3634C88.8694 73.5202 90.3623 72.0066 92.203 71.8952C94.3357 71.7606 96.1114 73.4552 96.1114 75.5631C96.1114 77.8217 94.6792 80.2148 95.2045 82.4115L95.2722 82.6946Z" fill="white"/>
<path d="M15.2044 63.6564C16.0516 63.2237 16.1494 62.6875 16.9675 63.1728C18.4153 64.0317 17.5789 67.0644 16.1519 67.9573C14.5805 68.9405 12.2589 70.1014 9.56053 70.5302C9.18499 70.5906 10.0891 67.9488 10.2235 67.5913C10.786 66.108 12.4083 65.0846 15.2044 63.6564Z" fill="url(#paint5_linear_16_242)"/>
<path d="M34.8346 61.1334C35.0417 59.9125 33.7518 59.118 32.5134 59.118C31.6672 59.118 30.8654 58.7647 30.2801 58.1536C28.7454 56.5513 25.4456 53.2495 21.8517 50.5479C17.4463 47.2362 11.6783 49.5222 11.9657 55.0262C12.0934 57.4721 12.7132 60.4251 14.2293 63.863C14.6327 64.773 15.7547 65.1816 16.5938 64.643C16.5998 64.6392 16.6057 64.6353 16.6116 64.6313C17.0692 64.3258 17.1244 63.7129 17.1015 63.1631C16.9626 59.8314 20.8791 57.9596 23.3714 60.1749C25.0731 61.6875 26.5816 63.0435 27.1368 63.5844C28.4468 64.8529 34.2828 64.3866 34.8346 61.1334Z" fill="#7D97F4"/>
<path d="M3.37568 84.8396C1.61124 85.073 2.52598 82.5266 4.09088 81.6788C5.26786 81.0412 6.71567 80.5023 8.45988 80.249C8.66778 80.2188 8.87909 80.2659 9.05809 80.3758C9.50872 80.6527 9.63004 81.2448 9.28345 81.6443C8.98432 81.989 8.57749 82.4195 8.07166 82.867C7.95595 82.9694 7.82935 83.0588 7.69506 83.1352C6.51403 83.8073 4.80825 84.651 3.37568 84.8396Z" fill="url(#paint6_linear_16_242)"/>
<path d="M8.81408 70.2516C9.44467 68.5758 11.2192 68.8632 12.9734 68.5041C13.1906 68.4596 13.4301 68.3908 13.6961 68.2923C15.5876 67.5928 17.0506 66.7166 17.9331 66.1148C18.0805 66.0144 18.2811 66.0989 18.2955 66.2767C18.3011 66.3467 18.2775 66.4193 18.2255 66.4666C17.6472 66.9924 13.966 70.1967 9.35653 70.9248C8.98099 70.9852 8.67963 70.6091 8.81408 70.2516Z" fill="#91B3FA"/>
<path d="M0.765425 84.3103C1.09864 83.9266 1.77721 84.3335 2.18157 84.6414C2.42676 84.8281 2.80776 84.915 3.37567 84.8396C3.9106 84.7689 4.13324 85.1739 3.60931 85.3028C2.89615 85.4784 2.13058 85.5725 1.31715 85.55C0.681971 85.5314 0.348156 84.7839 0.765425 84.3103Z" fill="#91B3FA"/>
<path d="M35.4155 61.9611C34.777 61.7025 34.0937 61.5733 33.4049 61.5807L23.9073 61.6836C20.4686 61.7209 17.1022 62.9127 14.9194 65.5701C12.2617 68.8054 8.96641 73.9281 7.95329 80.3057C7.91353 80.5561 7.90124 80.5197 7.88076 80.7724C7.80077 81.7591 9.7092 81.3771 10.487 80.7648C12.3084 79.3307 15.7822 76.2306 18.3046 71.7559C21.9413 65.3056 28.542 66.6287 30.6703 67.2606C31.1316 67.3975 31.5871 67.5452 32.06 67.6345C33.5726 67.9199 34.9671 68.0145 36.2416 67.8082C39.4699 67.2857 38.4467 63.1885 35.4155 61.9611Z" fill="#7D97F4"/>
<path d="M36.428 52.9104C37.9716 49.886 33.5546 51.3531 31.7312 54.2176C30.3231 56.4296 28.1341 58.8273 24.7957 60.388C24.2818 60.6283 23.7073 60.6987 23.144 60.6319L21.3762 60.4223C21.1625 60.397 20.9533 60.4972 20.8392 60.6797C20.6116 61.0434 20.8641 61.517 21.293 61.5307L26.5591 61.6989C27.0503 61.7145 27.5372 61.6317 27.9764 61.4114C29.6252 60.5846 33.9159 58.0378 36.428 52.9104Z" fill="url(#paint7_linear_16_242)"/>
<path d="M38.408 64.3498C34.8328 63.7732 34.001 59.2699 34.7805 55.7334C34.9114 55.1391 35.0354 54.5197 35.1454 53.8864C35.4572 52.091 34.7767 50.1924 33.2104 49.2611C32.923 49.0893 32.8163 48.7272 32.9601 48.43C33.6138 47.0743 37.5593 41.7628 37.856 41.6885C39.4648 41.2892 46.053 38.1507 50.694 44.5068C52.5243 47.0131 50.6617 54.2976 43.3521 62.2034C42.0354 63.6275 40.3228 64.6587 38.408 64.3498Z" fill="url(#paint8_linear_16_242)"/>
<path d="M42.9698 54.6792C42.0619 52.9964 39.6389 53.3215 38.1915 54.5709C36.599 55.9456 34.3266 57.5959 31.6689 58.6248C29.6374 59.4113 27.2409 57.5806 25.2452 58.454C23.5223 59.2081 24.7039 61.5973 26.5846 61.5973H30.8721C30.9257 61.5973 30.9756 61.5965 31.0291 61.5937C31.801 61.553 38.2295 61.1075 42.3583 57.4141C43.1411 56.7138 43.4684 55.6036 42.9698 54.6792Z" fill="url(#paint9_linear_16_242)"/>
<path d="M41.8289 37.6419C42.928 37.3925 44.0326 38.0369 44.3564 39.1165L44.9635 41.1407C45.0191 41.3218 44.9496 41.5168 44.7966 41.6236C44.2263 42.0136 42.7427 42.7889 40.7073 42.0368C40.4755 41.9486 40.3133 41.735 40.2947 41.4843L40.1667 39.9055C40.0805 38.8425 40.7889 37.8779 41.8289 37.6419Z" fill="url(#paint10_linear_16_242)"/>
<path d="M39.224 32.909C37.8271 33.5627 36.9949 35.0641 37.457 36.5355C37.7996 37.6261 38.3077 38.7815 39.0197 39.3532C40.342 40.4148 42.7238 39.9063 44.0541 37.8724C44.56 37.0987 44.4874 36.1144 44.1515 35.2532L43.9792 34.8115C43.2421 32.922 41.061 32.0494 39.224 32.909Z" fill="url(#paint11_linear_16_242)"/>
<path d="M42.8493 34.7242C42.7288 34.7613 42.6036 34.6871 42.5851 34.5617C42.5786 34.5179 42.5709 34.469 42.5619 34.4161C42.3952 33.4307 41.6293 32.7326 40.7491 33.206C39.2469 34.0138 36.989 35.2071 35.663 34.4967C34.3695 33.8049 33.0574 30.332 36.479 30.9727C36.6088 30.996 36.7294 30.8938 36.7201 30.7592C36.6784 30.1881 36.734 28.8742 38.0646 28.4516C39.3072 28.057 39.9887 28.6188 40.2715 28.9577C40.355 29.0599 40.508 29.0552 40.5868 28.9531C40.9577 28.4656 41.9731 27.4302 43.4613 28.0849C44.6899 28.6281 44.88 29.3849 44.8569 29.8538C44.8522 30.007 45.0052 30.1092 45.1443 30.0442C45.5199 29.8724 46.1226 29.7795 46.7021 30.5085C47.5042 31.5113 46.359 32.3842 46.0159 32.6117C45.9603 32.6488 45.9232 32.7092 45.9232 32.7788C45.9186 33.2988 45.8398 35.5785 44.6992 36.8646C44.6019 36.976 44.4164 36.9435 44.3608 36.8042L43.4845 34.7103C43.4428 34.6128 43.3361 34.5617 43.2341 34.5942L42.8493 34.7242Z" fill="url(#paint12_linear_16_242)"/>
<path d="M42.8635 35.3217C42.8419 35.2064 42.8447 35.0886 42.8779 34.9761C43.0254 34.4757 43.5092 33.083 44.1799 33.6703C44.7649 34.1795 44.4016 35.1253 43.8057 35.7295C43.4582 36.082 42.9545 35.8082 42.8635 35.3217Z" fill="url(#paint13_linear_16_242)"/>
<path d="M22.1023 62.3739C22.365 62.2085 22.4853 61.8883 22.3962 61.5909L18.5735 48.82C18.4113 48.2768 17.9291 47.8961 17.3681 47.8543L11.9992 47.4875C11.4521 47.4504 11.0488 47.9843 11.2296 48.4997L15.6712 61.1748C15.8149 61.5833 16.1812 61.8712 16.6124 61.913L21.6576 62.4758C21.8131 62.4932 21.9699 62.4572 22.1023 62.3739Z" fill="url(#paint14_linear_16_242)"/>
<path d="M15.2168 53.319C15.5136 53.9179 16.0282 54.2708 16.362 54.1037C16.6958 53.9365 16.7283 53.3144 16.4316 52.7154C16.1348 52.1165 15.6202 51.7636 15.2864 51.9308C14.9479 52.0979 14.9201 52.7154 15.2168 53.319Z" fill="#91B3FA"/>
<path d="M21.8978 62.5026C21.907 62.5026 21.9163 62.5026 21.9256 62.5026L33.1872 61.9316C33.4654 61.9176 33.6787 61.6809 33.6648 61.4023C33.6509 61.1237 33.4144 60.9055 33.1362 60.9241L21.8746 61.4951C21.5964 61.5091 21.3831 61.7459 21.3971 62.0244C21.4063 62.2937 21.6289 62.5026 21.8978 62.5026Z" fill="url(#paint15_linear_16_242)"/>
<path d="M35.5147 51.0904C35.4729 51.0904 35.4358 51.0579 35.4358 51.0115C35.4266 48.6297 36.3446 45.4818 36.3538 45.4493C36.3677 45.4075 36.4095 45.3843 36.4512 45.3982C36.4929 45.4121 36.5161 45.4539 36.5022 45.4957C36.4929 45.5282 35.5842 48.6575 35.5935 51.0115C35.5935 51.0533 35.561 51.0904 35.5147 51.0904Z" fill="url(#paint16_linear_16_242)"/>
<path d="M40.6378 52.2465C40.6193 52.2465 40.6054 52.2418 40.5914 52.2279C40.559 52.2001 40.5497 52.1536 40.5775 52.1165C40.6007 52.084 43.0487 48.9686 43.8879 46.8422C43.9018 46.8004 43.9481 46.7818 43.9899 46.8004C44.0316 46.8143 44.0501 46.8607 44.0316 46.9025C43.2448 48.8917 41.0745 51.7313 40.7411 52.1594C40.7117 52.197 40.6856 52.2465 40.6378 52.2465Z" fill="url(#paint17_linear_16_242)"/>
<path d="M44.1568 57.0194C44.1267 57.0304 44.0929 57.0198 44.0745 56.9936L43.6607 56.4065C43.6375 56.3694 43.6421 56.323 43.6792 56.2997C43.7163 56.2765 43.7627 56.2812 43.7859 56.3183C44.0016 56.6261 44.4066 56.7423 44.737 56.563C47.8674 54.8638 49.7817 51.1577 49.7992 51.1183C49.8177 51.0811 49.8641 51.0626 49.9058 51.0858C49.9429 51.1043 49.9614 51.1508 49.9382 51.1926C49.9151 51.2343 47.7175 55.4919 44.1568 57.0194Z" fill="url(#paint18_linear_16_242)"/>
<defs>
<linearGradient id="paint0_linear_16_242" x1="138.257" y1="131.181" x2="44.898" y2="49.6073" gradientUnits="userSpaceOnUse">
<stop stop-color="#DAE3FE"/>
<stop offset="1" stop-color="#E9EFFD"/>
</linearGradient>
<linearGradient id="paint1_linear_16_242" x1="10.3797" y1="9.27302" x2="110.412" y2="164.276" gradientUnits="userSpaceOnUse">
<stop stop-color="#4F52FF"/>
<stop offset="1" stop-color="#4042E2"/>
</linearGradient>
<linearGradient id="paint2_linear_16_242" x1="60.7091" y1="122.814" x2="44.0447" y2="72.8912" gradientUnits="userSpaceOnUse">
<stop stop-color="#09005D"/>
<stop offset="1" stop-color="#1A0F91"/>
</linearGradient>
<linearGradient id="paint3_linear_16_242" x1="22.0349" y1="119.829" x2="96.058" y2="137.81" gradientUnits="userSpaceOnUse">
<stop stop-color="#09005D"/>
<stop offset="1" stop-color="#1A0F91"/>
</linearGradient>
<linearGradient id="paint4_linear_16_242" x1="148.592" y1="13.3312" x2="127.023" y2="34.4011" gradientUnits="userSpaceOnUse">
<stop stop-color="#FF928E"/>
<stop offset="1" stop-color="#FE7062"/>
</linearGradient>
<linearGradient id="paint5_linear_16_242" x1="14.8789" y1="66.1448" x2="9.05369" y2="72.2204" gradientUnits="userSpaceOnUse">
<stop stop-color="#09005D"/>
<stop offset="1" stop-color="#1A0F91"/>
</linearGradient>
<linearGradient id="paint6_linear_16_242" x1="7.16281" y1="81.4152" x2="-3.85054" y2="89.4869" gradientUnits="userSpaceOnUse">
<stop stop-color="#09005D"/>
<stop offset="1" stop-color="#1A0F91"/>
</linearGradient>
<linearGradient id="paint7_linear_16_242" x1="24.9384" y1="51.5287" x2="32.4204" y2="60.4135" gradientUnits="userSpaceOnUse">
<stop stop-color="#FEBBBA"/>
<stop offset="1" stop-color="#FF928E"/>
</linearGradient>
<linearGradient id="paint8_linear_16_242" x1="61.9751" y1="29.6346" x2="39.4655" y2="53.0489" gradientUnits="userSpaceOnUse">
<stop stop-color="#FF928E"/>
<stop offset="1" stop-color="#FE7062"/>
</linearGradient>
<linearGradient id="paint9_linear_16_242" x1="33.6482" y1="59.6224" x2="18.6902" y2="39.188" gradientUnits="userSpaceOnUse">
<stop stop-color="#FEBBBA"/>
<stop offset="1" stop-color="#FF928E"/>
</linearGradient>
<linearGradient id="paint10_linear_16_242" x1="42.7816" y1="42.6717" x2="42.2301" y2="37.7153" gradientUnits="userSpaceOnUse">
<stop stop-color="#FEBBBA"/>
<stop offset="1" stop-color="#FF928E"/>
</linearGradient>
<linearGradient id="paint11_linear_16_242" x1="39.8483" y1="38.3481" x2="42.2786" y2="30.3437" gradientUnits="userSpaceOnUse">
<stop stop-color="#FEBBBA"/>
<stop offset="1" stop-color="#FF928E"/>
</linearGradient>
<linearGradient id="paint12_linear_16_242" x1="42.0357" y1="23.6472" x2="39.7758" y2="36.5187" gradientUnits="userSpaceOnUse">
<stop stop-color="#09005D"/>
<stop offset="1" stop-color="#1A0F91"/>
</linearGradient>
<linearGradient id="paint13_linear_16_242" x1="42.3591" y1="39.1104" x2="44.7894" y2="31.106" gradientUnits="userSpaceOnUse">
<stop stop-color="#FEBBBA"/>
<stop offset="1" stop-color="#FF928E"/>
</linearGradient>
<linearGradient id="paint14_linear_16_242" x1="22.5459" y1="54.9946" x2="11.1846" y2="54.9946" gradientUnits="userSpaceOnUse">
<stop stop-color="#09005D"/>
<stop offset="1" stop-color="#1A0F91"/>
</linearGradient>
<linearGradient id="paint15_linear_16_242" x1="21.167" y1="59.9679" x2="30.2533" y2="62.4547" gradientUnits="userSpaceOnUse">
<stop stop-color="#09005D"/>
<stop offset="1" stop-color="#1A0F91"/>
</linearGradient>
<linearGradient id="paint16_linear_16_242" x1="37.9836" y1="17.0316" x2="34.4619" y2="71.1889" gradientUnits="userSpaceOnUse">
<stop stop-color="#E1473D"/>
<stop offset="1" stop-color="#E9605A"/>
</linearGradient>
<linearGradient id="paint17_linear_16_242" x1="44.3771" y1="17.4474" x2="40.8554" y2="71.6046" gradientUnits="userSpaceOnUse">
<stop stop-color="#E1473D"/>
<stop offset="1" stop-color="#E9605A"/>
</linearGradient>
<linearGradient id="paint18_linear_16_242" x1="49.1341" y1="17.7567" x2="45.6124" y2="71.9139" gradientUnits="userSpaceOnUse">
<stop stop-color="#E1473D"/>
<stop offset="1" stop-color="#E9605A"/>
</linearGradient>
</defs>
</svg>
