<svg width="32" height="32" viewBox="0 0 32 32" fill="none" xmlns="http://www.w3.org/2000/svg">
<path d="M15.9998 6.52L18.7598 12.1L19.2198 13.1L20.2198 13.25L26.3798 14.14L21.9998 18.44L21.2498 19.17L21.4298 20.17L22.4798 26.3L16.9698 23.41L15.9998 23L15.0698 23.49L9.55979 26.34L10.5598 20.21L10.7398 19.21L9.99979 18.44L5.57979 14.09L11.7398 13.2L12.7398 13.05L13.1998 12.05L15.9998 6.52ZM15.9998 2L11.4498 11.22L1.27979 12.69L8.63979 19.87L6.89979 30L15.9998 25.22L25.0998 30L23.3598 19.87L30.7198 12.7L20.5498 11.22L15.9998 2Z" fill="#1E0094"/>
</svg>
