<svg width="32" height="32" viewBox="0 0 32 32" fill="none" xmlns="http://www.w3.org/2000/svg">
<path d="M11 24H15V26H11V24Z" fill="#1E0094"/>
<path d="M5 24H9V26H5V24Z" fill="#1E0094"/>
<path d="M23 24H27V26H23V24Z" fill="#1E0094"/>
<path d="M17 24H21V26H17V24Z" fill="#1E0094"/>
<path d="M9.0002 22C9.46152 21.3743 10.0645 20.8669 10.7598 20.5193C11.4551 20.1716 12.2229 19.9937 13.0002 20H19.0002C19.7735 20.0162 20.5334 20.2041 21.2252 20.5499C21.917 20.8958 22.5233 21.3911 23.0002 22H25.3002C24.7472 20.7971 23.8583 19.7796 22.7407 19.07C21.623 18.3604 20.3241 17.9888 19.0002 18H13.0002C11.6763 17.9888 10.3774 18.3604 9.25973 19.07C8.14205 19.7796 7.25323 20.7971 6.7002 22H9.0002Z" fill="#1E0094"/>
<path d="M24 28H26V30H24V28Z" fill="#1E0094"/>
<path d="M6 28H8V30H6V28Z" fill="#1E0094"/>
<path d="M16 16C14.6155 16 13.2622 15.5895 12.111 14.8203C10.9599 14.0511 10.0627 12.9579 9.53285 11.6788C9.00303 10.3997 8.86441 8.99224 9.13451 7.63437C9.4046 6.2765 10.0713 5.02922 11.0503 4.05026C12.0292 3.07129 13.2765 2.4046 14.6344 2.13451C15.9922 1.86441 17.3997 2.00303 18.6788 2.53285C19.9579 3.06266 21.0511 3.95987 21.8203 5.11101C22.5895 6.26216 23 7.61553 23 9C23 10.8565 22.2625 12.637 20.9497 13.9497C19.637 15.2625 17.8565 16 16 16ZM16 4C14.6739 4 13.4022 4.52679 12.4645 5.46447C11.5268 6.40215 11 7.67392 11 9C11 10.3261 11.5268 11.5979 12.4645 12.5355C13.4022 13.4732 14.6739 14 16 14C17.3261 14 18.5979 13.4732 19.5355 12.5355C20.4732 11.5979 21 10.3261 21 9C21 7.67392 20.4732 6.40215 19.5355 5.46447C18.5979 4.52679 17.3261 4 16 4Z" fill="#1E0094"/>
</svg>
