<svg width="32" height="32" viewBox="0 0 32 32" fill="none" xmlns="http://www.w3.org/2000/svg">
<path d="M29 5.03125H21.85C20.3156 5.03125 18.8156 5.47188 17.525 6.30313L16 7.28126L14.475 6.30313C13.1857 5.47204 11.684 5.03043 10.15 5.03125H3C2.44687 5.03125 2 5.47813 2 6.03125V23.7813C2 24.3344 2.44687 24.7813 3 24.7813H10.15C11.6844 24.7813 13.1844 25.2219 14.475 26.0532L15.8625 26.9469C15.9031 26.9719 15.95 26.9875 15.9969 26.9875C16.0437 26.9875 16.0906 26.975 16.1313 26.9469L17.5187 26.0532C18.8125 25.2219 20.3156 24.7813 21.85 24.7813H29C29.5531 24.7813 30 24.3344 30 23.7813V6.03125C30 5.47813 29.5531 5.03125 29 5.03125ZM10.15 22.5313H4.25V7.28126H10.15C11.2562 7.28126 12.3312 7.59688 13.2594 8.19376L14.7844 9.17188L15 9.31251V23.75C13.5125 22.95 11.85 22.5313 10.15 22.5313ZM27.75 22.5313H21.85C20.15 22.5313 18.4875 22.95 17 23.75V9.31251L17.2156 9.17188L18.7406 8.19376C19.6688 7.59688 20.7437 7.28126 21.85 7.28126H27.75V22.5313ZM12.4031 11.2813H6.59688C6.475 11.2813 6.375 11.3875 6.375 11.5156V12.9219C6.375 13.05 6.475 13.1563 6.59688 13.1563H12.4C12.5219 13.1563 12.6219 13.05 12.6219 12.9219V11.5156C12.625 11.3875 12.525 11.2813 12.4031 11.2813ZM19.375 11.5156V12.9219C19.375 13.05 19.475 13.1563 19.5969 13.1563H25.4C25.5219 13.1563 25.6219 13.05 25.6219 12.9219V11.5156C25.6219 11.3875 25.5219 11.2813 25.4 11.2813H19.5969C19.475 11.2813 19.375 11.3875 19.375 11.5156ZM12.4031 15.6563H6.59688C6.475 15.6563 6.375 15.7625 6.375 15.8906V17.2969C6.375 17.425 6.475 17.5313 6.59688 17.5313H12.4C12.5219 17.5313 12.6219 17.425 12.6219 17.2969V15.8906C12.625 15.7625 12.525 15.6563 12.4031 15.6563ZM25.4031 15.6563H19.5969C19.475 15.6563 19.375 15.7625 19.375 15.8906V17.2969C19.375 17.425 19.475 17.5313 19.5969 17.5313H25.4C25.5219 17.5313 25.6219 17.425 25.6219 17.2969V15.8906C25.625 15.7625 25.525 15.6563 25.4031 15.6563Z" fill="#3F3F3F"/>
</svg>
