<svg width="32" height="32" viewBox="0 0 32 32" fill="none" xmlns="http://www.w3.org/2000/svg">
<path d="M6.22211 5.33333H20.4443V14.0444H22.2221V5.33333C22.2221 4.86184 22.0348 4.40965 21.7014 4.07625C21.368 3.74286 20.9158 3.55556 20.4443 3.55556H6.22211C5.75062 3.55556 5.29843 3.74286 4.96503 4.07625C4.63164 4.40965 4.44434 4.86184 4.44434 5.33333V26.6667C4.44434 27.1382 4.63164 27.5903 4.96503 27.9237C5.29843 28.2571 5.75062 28.4444 6.22211 28.4444H20.4443C20.9158 28.4444 21.368 28.2571 21.7014 27.9237C22.0348 27.5903 22.2221 27.1382 22.2221 26.6667H6.22211V5.33333Z" fill="#1E0094"/>
<path d="M25.0311 15.36C24.861 15.2144 24.6423 15.1383 24.4186 15.1469C24.1949 15.1556 23.9826 15.2483 23.8243 15.4066C23.666 15.5649 23.5733 15.7771 23.5647 16.0008C23.556 16.2246 23.6321 16.4433 23.7777 16.6133L26.7822 19.5556H13.8933C13.6575 19.5556 13.4314 19.6492 13.2647 19.8159C13.098 19.9826 13.0044 20.2087 13.0044 20.4444C13.0044 20.6802 13.098 20.9063 13.2647 21.073C13.4314 21.2397 13.6575 21.3333 13.8933 21.3333H26.7822L23.7777 24.4089C23.6847 24.4886 23.6091 24.5866 23.5557 24.6969C23.5024 24.8072 23.4724 24.9273 23.4677 25.0497C23.463 25.1721 23.4836 25.2942 23.5283 25.4083C23.573 25.5224 23.6407 25.626 23.7274 25.7126C23.814 25.7992 23.9176 25.867 24.0317 25.9117C24.1457 25.9564 24.2678 25.977 24.3902 25.9723C24.5126 25.9675 24.6328 25.9376 24.743 25.8842C24.8533 25.8308 24.9514 25.7553 25.0311 25.6622L30.2222 20.5067L25.0311 15.36Z" fill="#1E0094"/>
</svg>
