<svg width="19" height="19" viewBox="0 0 19 19" fill="none" xmlns="http://www.w3.org/2000/svg">
<path d="M8.12486 16.2497C9.92754 16.2494 11.6783 15.6459 13.0983 14.5354L17.5629 19L18.999 17.5639L14.5344 13.0993C15.6454 11.6791 16.2493 9.92801 16.2497 8.12486C16.2497 3.64502 12.6047 0 8.12486 0C3.64502 0 0 3.64502 0 8.12486C0 12.6047 3.64502 16.2497 8.12486 16.2497ZM8.12486 2.03122C11.4855 2.03122 14.2185 4.76422 14.2185 8.12486C14.2185 11.4855 11.4855 14.2185 8.12486 14.2185C4.76422 14.2185 2.03122 11.4855 2.03122 8.12486C2.03122 4.76422 4.76422 2.03122 8.12486 2.03122Z" fill="#3F3F3F"/>
</svg>
