<svg 
          width="14" 
          height="17.5" fill="none" 
          xmlns="http://www.w3.org/2000/svg">
          <path d="M 11.375 6.125 L 11.375 4.375 C 11.375 1.9250000417232513 9.449999958276749 0 7 0 C 4.550000041723251 0 2.625 1.9250000417232513 2.625 4.375 L 2.625 6.125 C 1.1374999582767487 6.125 0 7.262499958276749 0 8.75 L 0 14.875 C 0 16.36250004172325 1.1374999582767487 17.5 2.625 17.5 L 11.375 17.5 C 12.862500041723251 17.5 14 16.36250004172325 14 14.875 L 14 8.75 C 14 7.262499958276749 12.862500041723251 6.125 11.375 6.125 Z M 4.375 4.375 C 4.375 2.8874999582767487 5.512499958276749 1.75 7 1.75 C 8.487500041723251 1.75 9.625 2.8874999582767487 9.625 4.375 L 9.625 6.125 L 4.375 6.125 L 4.375 4.375 Z M 7.875 13.125 C 7.875 13.650000020861626 7.525000020861626 14 7 14 C 6.474999979138374 14 6.125 13.650000020861626 6.125 13.125 L 6.125 10.5 C 6.125 9.974999979138374 6.474999979138374 9.625 7 9.625 C 7.525000020861626 9.625 7.875 9.974999979138374 7.875 10.5 L 7.875 13.125 Z" fill="rgb(154.0625050663948,154.0625050663948,154.0625050663948)"/>
        </svg>