<svg 
          width="369" 
          height="305" fill="none" 
          xmlns="http://www.w3.org/2000/svg">
          <defs>
            <linearGradient id="e125">
        <stop offset="0%" style="stop-color:rgb(255,111.00000098347664,216.00000232458115);stop-opacity:1" />
        <stop offset="100%" style="stop-color:rgb(56.000000461936,19.0000007674098,194.00000363588333);stop-opacity:1" />
        </linearGradient>
          </defs>
          <path d="M 54.78759846162752 242.6752910112296 C 17.324657605404788 251.1225673913145 -0.8738533308056939 204.33360480993102 0.0322276649569986 170.54145988202336 C 0.907634888914025 137.89329080488392 18.518687432995584 109.85686320255033 54.78759846162752 101.95103729477874 C 84.71138635500202 95.42830886272685 99.02791907912908 120.25718414900362 129.53301646422938 124.22393953818278 C 154.48812647150942 127.46899783466824 171.25729995306693 133.5108850860949 194.13856484187195 124.22393953818278 C 243.38971634023108 104.23410161349763 142.63061127529633 17.769975035350754 194.13856484187195 2.735382329640215 C 233.7992303585178 -8.841119587971638 262.85340800410086 18.28890511963187 288.2946202199844 47.28118633369612 C 321.935979102817 85.61818404606504 279.4471860374157 125.75682824907838 300.1727510620553 170.54145988202336 C 317.23062536742805 207.40079959204942 372.40688909518667 213.16414584992947 368.8342437531711 252.79933748550417 C 363.44447632551817 312.5938149831885 222.5443940186873 324.6151623911139 194.13856484187195 270.010185595633 C 181.78051626392295 246.25411232027568 210.13921370229613 225.22578375271382 194.13856484187195 203.19150976155882 C 172.40991503246016 173.26928376117226 126.98115448426654 167.80722698526426 92.16030525260939 185.98063075529205 C 57.339456020952234 204.15403452531984 83.1049485665344 236.2901942530727 54.78759846162752 242.6752910112296 Z" fill="url(#e125)"/>
        </svg>