<svg 
          width="14.18546199798584" 
          height="5.653330326080322" fill="none" 
          xmlns="http://www.w3.org/2000/svg">
          <path d="M 0.000014775730019494926 2.824164057120885 C -0.0011721998838818651 2.509639383243575 0.06917029702510802 2.198960664827582 0.2057361674317838 1.9156287925078939 C 0.6342908347991396 1.0585194067681423 1.8428148739858068 0.6042517326016662 2.8456327733000966 0.3985454403966777 C 3.5688641227948104 0.24420755331190794 4.3020852729362 0.1410984578478936 5.039832714871604 0.08998625324907711 C 6.4057207558186615 -0.02999541774969236 7.77949834265317 -0.02999541774969236 9.145386383600227 0.08998625324907711 C 9.88307198439098 0.1416870719615891 10.61625183268486 0.2447903558649982 11.339586101918506 0.3985454403966777 C 12.342404001232795 0.6042517326016662 13.550928570645883 1.0156640518984341 13.979483210106585 1.9156287925078939 C 14.254121714874424 2.4931901969917414 14.254121714874424 3.1637108412257673 13.979483210106585 3.741272245709615 C 13.550928570645883 4.6412369863190746 12.342404001232795 5.052648468416236 11.339586101918506 5.2497835947646605 C 10.617200268218305 5.410513207829056 9.883719697823901 5.516523855737705 9.145386383600227 5.566913912885508 C 8.033665335542475 5.66115829589242 6.916754096398628 5.678341831779539 5.802659978134852 5.618340740584968 C 5.545527177714438 5.618340740584968 5.296965515292018 5.618340461518433 5.039832714871604 5.566913912885508 C 4.304263275632697 5.517144775291236 3.5735844774588172 5.411124851908608 2.8542039112980895 5.2497835947646605 C 1.8428148739858068 5.052648468416236 0.6428619169838252 4.6412369863190746 0.2057361674317838 3.741272245709615 C 0.06986799127484697 3.454654588185658 -0.0004046791258907987 3.1413543745469013 0.000014775730019494926 2.824164057120885 Z" fill="rgb(154.0625050663948,154.0625050663948,154.0625050663948)"/>
        </svg>